<?xml version="1.0" standalone="no"?>
<!DOCTYPE svg PUBLIC "-//W3C//DTD SVG 20010904//EN"
 "http://www.w3.org/TR/2001/REC-SVG-20010904/DTD/svg10.dtd">
<svg version="1.0" xmlns="http://www.w3.org/2000/svg"
 width="250.000000pt" height="250.000000pt" viewBox="0 0 250.000000 250.000000"
 preserveAspectRatio="xMidYMid meet">

<g transform="translate(0.000000,250.000000) scale(0.100000,-0.100000)"
fill="#000000" stroke="none">
<path d="M1160 2131 c0 -27 -2 -64 -5 -82 -4 -29 -3 -30 4 -9 5 14 9 49 10 78
l1 52 43 -26 c23 -14 67 -49 97 -78 30 -28 41 -36 25 -17 -51 58 -142 130
-167 131 -5 0 -8 -22 -8 -49z"/>
<path d="M1126 1955 c-9 -26 -7 -32 5 -12 6 10 9 21 6 23 -2 3 -7 -2 -11 -11z"/>
<path d="M1519 1948 c0 -2 -2 -34 -3 -73 -1 -38 -8 -81 -15 -95 -14 -23 -15
-24 -22 -5 -7 17 -8 17 -6 2 3 -29 21 -23 40 14 14 26 17 48 14 92 l-5 59 21
-19 22 -18 -19 23 c-18 21 -25 26 -27 20z"/>
<path d="M1426 1897 c3 -10 9 -15 12 -12 3 3 0 11 -7 18 -10 9 -11 8 -5 -6z"/>
<path d="M1570 1893 c0 -5 10 -18 23 -29 l22 -19 -20 25 c-11 14 -21 27 -22
29 -2 2 -3 0 -3 -6z"/>
<path d="M1440 1865 c0 -5 5 -17 10 -25 5 -8 10 -10 10 -5 0 6 -5 17 -10 25
-5 8 -10 11 -10 5z"/>
<path d="M1625 1816 c10 -14 19 -26 22 -26 7 0 -17 39 -28 46 -6 3 -3 -5 6
-20z"/>
<path d="M885 1799 c-10 -42 -2 -45 11 -3 6 19 8 34 3 34 -4 0 -10 -14 -14
-31z"/>
<path d="M911 1805 c1 -19 18 -51 18 -35 0 8 -4 22 -9 30 -5 8 -9 11 -9 5z"/>
<path d="M1677 1725 c9 -19 18 -33 21 -31 4 5 -26 66 -33 66 -3 0 3 -16 12
-35z"/>
<path d="M866 1735 c-9 -26 -7 -32 5 -12 6 10 9 21 6 23 -2 3 -7 -2 -11 -11z"/>
<path d="M936 1715 c3 -22 6 -46 6 -53 1 -8 7 -7 20 5 10 9 18 19 18 22 0 3
-6 -1 -12 -8 -11 -10 -15 -3 -25 31 l-13 43 6 -40z"/>
<path d="M989 1713 c-13 -16 -12 -17 4 -4 9 7 17 15 17 17 0 8 -8 3 -21 -13z"/>
<path d="M1255 1694 c6 -2 10 -21 9 -42 l-3 -37 7 35 7 35 45 -39 c44 -38 44
-38 -3 8 -27 25 -54 46 -60 45 -8 0 -8 -2 -2 -5z"/>
<path d="M836 1663 c-6 -14 -5 -15 5 -6 7 7 10 15 7 18 -3 3 -9 -2 -12 -12z"/>
<path d="M1711 1655 c1 -19 18 -51 18 -35 0 8 -4 22 -9 30 -5 8 -9 11 -9 5z"/>
<path d="M807 1605 c-24 -50 -20 -58 4 -12 11 22 19 41 17 43 -3 2 -12 -12
-21 -31z"/>
<path d="M1250 1583 c0 -10 -3 -29 -7 -43 -3 -14 -3 -22 1 -18 12 11 25 78 15
78 -5 0 -9 -8 -9 -17z"/>
<path d="M1391 1552 c17 -29 34 -52 36 -52 7 0 -41 81 -55 92 -7 7 1 -12 19
-40z"/>
<path d="M1737 1550 c3 -30 7 -57 9 -59 8 -9 2 75 -6 94 -6 13 -7 1 -3 -35z"/>
<path d="M1135 1540 c3 -5 8 -10 11 -10 2 0 4 5 4 10 0 6 -5 10 -11 10 -5 0
-7 -4 -4 -10z"/>
<path d="M1151 1515 c1 -19 18 -51 18 -35 0 8 -4 22 -9 30 -5 8 -9 11 -9 5z"/>
<path d="M756 1478 c-11 -43 -5 -163 9 -193 11 -23 13 -24 7 -5 -4 14 -7 69
-7 123 0 53 -1 97 -1 97 -1 0 -4 -10 -8 -22z"/>
<path d="M1430 1485 c0 -5 5 -17 10 -25 5 -8 10 -10 10 -5 0 6 -5 17 -10 25
-5 8 -10 11 -10 5z"/>
<path d="M1163 1424 c-1 -38 8 -43 28 -16 13 15 12 16 -4 3 -17 -13 -18 -12
-12 11 4 14 3 28 -2 31 -5 3 -10 -10 -10 -29z"/>
<path d="M1741 1430 c-1 -14 -4 -36 -6 -50 l-6 -25 11 25 c6 13 9 36 7 50 l-4
25 -2 -25z"/>
<path d="M1086 1423 c-6 -14 -5 -15 5 -6 7 7 10 15 7 18 -3 3 -9 -2 -12 -12z"/>
<path d="M1462 1395 c0 -11 4 -31 8 -45 6 -20 8 -21 8 -5 0 11 -4 31 -8 45 -6
20 -8 21 -8 5z"/>
<path d="M1030 1330 c-6 -11 -8 -20 -6 -20 3 0 10 9 16 20 6 11 8 20 6 20 -3
0 -10 -9 -16 -20z"/>
<path d="M1696 1283 c-6 -14 -5 -15 5 -6 7 7 10 15 7 18 -3 3 -9 -2 -12 -12z"/>
<path d="M1483 1250 c0 -25 2 -35 4 -22 2 12 2 32 0 45 -2 12 -4 2 -4 -23z"/>
<path d="M992 1185 c-1 -43 4 -81 14 -100 8 -16 11 -21 8 -10 -4 11 -10 56
-14 100 l-7 80 -1 -70z"/>
<path d="M1659 1223 c-13 -16 -12 -17 4 -4 16 13 21 21 13 21 -2 0 -10 -8 -17
-17z"/>
<path d="M871 1138 c32 -31 69 -62 81 -68 15 -7 13 -3 -7 12 -16 12 -53 43
-81 68 -44 39 -43 37 7 -12z"/>
<path d="M1477 1193 c-3 -5 -7 -28 -11 -53 -7 -52 -1 -44 13 18 8 40 8 51 -2
35z"/>
<path d="M1609 1164 c-34 -35 -150 -124 -163 -124 -4 0 -2 9 4 19 15 30 11 39
-5 11 -30 -53 -13 -53 63 -1 51 35 154 131 141 131 -3 0 -21 -16 -40 -36z"/>
<path d="M994 1046 c24 -19 36 -20 36 -4 0 6 -3 8 -6 5 -4 -3 -16 -2 -28 4
-20 10 -20 10 -2 -5z"/>
<path d="M288 873 l-28 -4 0 -285 0 -284 35 0 35 0 0 125 0 125 54 0 c43 0 60
-5 84 -25 28 -24 35 -41 72 -182 10 -41 12 -43 49 -43 l38 0 -28 105 c-31 114
-50 151 -80 160 -18 6 -16 9 12 28 54 37 74 72 74 132 0 102 -58 146 -198 151
-51 1 -104 0 -119 -3z m215 -81 c32 -30 40 -74 23 -117 -19 -45 -61 -65 -136
-65 l-60 0 0 106 0 106 74 -4 c61 -3 79 -8 99 -26z"/>
<path d="M767 704 c-42 -13 -47 -18 -41 -37 3 -12 7 -23 8 -24 0 -1 25 5 54
12 87 23 135 3 148 -62 l6 -30 -66 -6 c-146 -14 -219 -100 -170 -202 17 -36
65 -65 108 -65 32 0 93 24 118 47 17 15 18 14 18 -10 0 -24 4 -27 33 -27 l32
0 -3 152 c-3 167 -13 204 -64 241 -35 26 -119 31 -181 11z m173 -242 c0 -56
-20 -89 -65 -108 -65 -27 -130 26 -106 87 16 44 60 66 134 68 l37 1 0 -48z"/>
<path d="M1194 706 c-66 -30 -95 -111 -58 -164 8 -12 47 -38 85 -57 72 -37 94
-69 72 -104 -21 -35 -59 -44 -115 -27 -55 16 -68 11 -68 -26 0 -22 87 -42 147
-33 65 9 113 57 113 111 0 58 -27 91 -105 132 -76 40 -92 67 -59 103 19 21 82
26 114 9 17 -9 21 -6 26 16 4 14 2 30 -3 35 -17 17 -115 21 -149 5z"/>
<path d="M1560 704 c-68 -29 -108 -90 -117 -178 -15 -151 84 -247 242 -233 84
8 97 14 93 46 -2 17 -8 25 -18 22 -8 -2 -45 -6 -81 -9 -86 -5 -123 13 -151 74
-32 73 -29 74 137 74 l145 0 0 38 c0 20 -11 60 -24 88 -19 41 -33 55 -68 73
-51 24 -109 26 -158 5z m136 -59 c21 -13 51 -81 41 -91 -2 -3 -54 -3 -115 -2
l-111 3 19 43 c30 67 104 88 166 47z"/>
<path d="M2050 709 c-14 -6 -37 -22 -52 -36 l-28 -27 0 32 c0 30 -2 32 -36 32
-36 0 -36 -1 -30 -31 3 -17 6 -110 6 -205 l0 -174 35 0 35 0 0 138 c0 116 3
142 19 168 41 67 131 69 163 4 15 -28 18 -62 18 -172 l0 -138 35 0 35 0 0 158
c0 139 -2 161 -20 190 -38 62 -113 87 -180 61z"/>
</g>
</svg>
